<svg xmlns="http://www.w3.org/2000/svg" xmlns:xlink="http://www.w3.org/1999/xlink" viewBox="0 0 1004.75 729.12"><defs><style>.cls-1,.cls-11,.cls-12,.cls-14,.cls-15,.cls-16,.cls-40,.cls-42,.cls-50,.cls-51{fill:none;}.cls-2,.cls-7{fill:#c6dd7f;}.cls-2,.cls-3,.cls-4{mix-blend-mode:multiply;}.cls-3,.cls-5{fill:#e9ddb7;}.cls-4,.cls-6{fill:#a6d0e4;}.cls-14,.cls-15,.cls-16,.cls-40,.cls-44,.cls-51,.cls-8{stroke:#000;}.cls-11,.cls-12,.cls-14,.cls-15,.cls-16,.cls-35,.cls-40,.cls-42,.cls-44,.cls-50,.cls-51,.cls-8{stroke-miterlimit:10;}.cls-8{fill:url(#Alyssa);}.cls-50,.cls-9{opacity:0.2;}.cls-10{fill:#ff7635;}.cls-11,.cls-35{stroke:#ff7635;}.cls-11,.cls-12,.cls-14,.cls-42,.cls-50{stroke-width:2px;}.cls-12{stroke:#999;}.cls-13{fill:#999;}.cls-16{stroke-dasharray:10.06 10.06;}.cls-17{clip-path:url(#clip-path);}.cls-18{clip-path:url(#clip-path-2);}.cls-19{clip-path:url(#clip-path-3);}.cls-20{clip-path:url(#clip-path-4);}.cls-21{clip-path:url(#clip-path-5);}.cls-22{clip-path:url(#clip-path-6);}.cls-23{clip-path:url(#clip-path-7);}.cls-24{clip-path:url(#clip-path-8);}.cls-25{clip-path:url(#clip-path-9);}.cls-26{clip-path:url(#clip-path-10);}.cls-27{clip-path:url(#clip-path-11);}.cls-28{clip-path:url(#clip-path-12);}.cls-29{clip-path:url(#clip-path-13);}.cls-30{clip-path:url(#clip-path-14);}.cls-31{clip-path:url(#clip-path-15);}.cls-32{clip-path:url(#clip-path-16);}.cls-33{clip-path:url(#clip-path-17);}.cls-34{fill:#53b7c4;}.cls-35{fill:#fff;}.cls-36{clip-path:url(#clip-path-18);}.cls-37{clip-path:url(#clip-path-19);}.cls-38{clip-path:url(#clip-path-20);}.cls-39{clip-path:url(#clip-path-21);}.cls-40{stroke-width:5px;}.cls-41{clip-path:url(#clip-path-22);}.cls-42,.cls-50{stroke:#53b7c4;}.cls-43{clip-path:url(#clip-path-23);}.cls-44{stroke-width:1.25px;}.cls-45{opacity:0.4;}.cls-46{clip-path:url(#clip-path-24);}.cls-47{clip-path:url(#clip-path-25);}.cls-48{clip-path:url(#clip-path-26);}.cls-49{clip-path:url(#clip-path-27);}.cls-51{stroke-dasharray:10.03 10.03;}</style><pattern id="Alyssa" data-name="Alyssa" width="144.13" height="138.36" patternUnits="userSpaceOnUse" viewBox="0 0 144.13 138.36"><rect class="cls-1" width="144.13" height="138.36"/><path class="cls-2" d="M211.07,158.52c-11.76-1.38-19.37.35-22.65,3.11-3,2.54-5,5.41-2.25,11.93,2.94,7.09,1.53,14.73-5.54,15.91-6.22,1-10.89-4.84-11.24-12.28-.24-5.18-1.9-8.3-5.53-7.61s-4.63,5.9-3.63,11.76c1.38,8.13,5.54,11.76,6.23,20.23.49,6.05-2.94,13.66-12.45,15-9.3,1.35-15.91-4.32-16.6-10.55-.73-6.59,3.63-10.89,3.11-17.64s-4-10.17-5.88-17.29c-2.77-10.55,1.21-19,7.78-22.65,14.75-8.15,22.83,3.64,36,1.56,10.9-1.73,23.35-18.16,33-19.54,8.23-1.17,13.83,4.67,15,14S221.72,159.78,211.07,158.52Zm-42.2.52a4.15,4.15,0,1,0-4.15,4.15A4.15,4.15,0,0,0,168.88,159Zm49.46-15.39a1.73,1.73,0,1,0-1.73,1.73A1.73,1.73,0,0,0,218.34,143.65Z"/><path class="cls-3" d="M48.83,139.33c0,7.17,4.59,13.81-1,16.33-8.5,3.83-28-14.33-28-36.17,0-12,8.67-19,17.83-19,12.33,0,18,8.17,18,17.5S48.83,131.14,48.83,139.33ZM43.42,134A2.08,2.08,0,1,0,41.35,136,2.08,2.08,0,0,0,43.42,134Z"/><path class="cls-4" d="M123.53,162.83c-7.87,2.74-19.44-15.3-17.67-27,1.24-8.23,7.12-13.19,13.09-14.22,7.53-1.3,12.9,2.6,13.3,7.24.55,6.31-3.63,7.52-4.22,15C127.46,150.93,131.72,160,123.53,162.83Zm-3.79-27.51a2.59,2.59,0,1,0-2.59,2.59A2.59,2.59,0,0,0,119.74,135.32Z"/><circle class="cls-3" cx="16.79" cy="140.36" r="2.59"/><path class="cls-4" d="M84.61,132.64c.74,8.1,12.67,7,17.9,14.21,10.52,14.47-1.22,46.37-21.63,46.37-11.74,0-24.22-9.72-24.22-29.22,0-15.83,10.17-21.5,8.25-42.17-1-10.83-12.5-20.34-12.5-34.75C52.42,81.16,56,73.64,64,73.64c7.05,0,10.82,6,10.82,12.9s-5.38,15.74,1.37,19c5.24,2.57,13.21-4.77,19.5-6.75,5.19-1.64,12.39.22,14.75,8.5,2.53,8.88-3.25,14.75-11.59,16.69C92.51,125.5,84,126.2,84.61,132.64Zm-16-30.56a3.29,3.29,0,1,0-3.29,3.29A3.29,3.29,0,0,0,68.62,102.08Zm26,9.7a2.33,2.33,0,1,0-2.33-2.33A2.33,2.33,0,0,0,94.61,111.78Zm-20,59.67a3.29,3.29,0,1,0-3.29,3.29A3.29,3.29,0,0,0,74.62,171.45Z"/><path class="cls-2" d="M66.94,158.52c-11.76-1.38-19.37.35-22.65,3.11-3,2.54-5,5.41-2.25,11.93,2.94,7.09,1.53,14.73-5.54,15.91-6.22,1-10.89-4.84-11.24-12.28-.24-5.18-1.9-8.3-5.53-7.61s-4.63,5.9-3.63,11.76c1.38,8.13,5.54,11.76,6.23,20.23.49,6.05-2.94,13.66-12.45,15C.57,218-6,212.3-6.73,206.08c-.73-6.59,3.63-10.89,3.11-17.64s-4-10.17-5.88-17.29c-2.77-10.55,1.21-19,7.78-22.65,14.75-8.15,22.83,3.64,36,1.56,10.9-1.73,23.35-18.16,33-19.54,8.23-1.17,13.83,4.67,15,14S77.59,159.78,66.94,158.52Zm-42.2.52a4.15,4.15,0,1,0-4.15,4.15A4.15,4.15,0,0,0,24.75,159Zm49.46-15.39a1.73,1.73,0,1,0-1.73,1.73A1.73,1.73,0,0,0,74.21,143.65Z"/><path class="cls-4" d="M190.32,112c0,6.23-4.15,10.72-8.65,11.59s-8.32-1.28-13,1.21c-4.84,2.59-7.09,11.07-16.78,11.07-8,0-15.22-8-15.22-18.85,0-20.23,13.14-29.23,25.59-29.23C178.91,87.78,190.32,100.4,190.32,112ZM170.61,97.63a3.8,3.8,0,1,0-3.8,3.8A3.8,3.8,0,0,0,170.61,97.63Z"/><path class="cls-2" d="M211.07,20.16c-11.76-1.38-19.37.35-22.65,3.11-3,2.54-5,5.41-2.25,11.93,2.94,7.09,1.53,14.73-5.54,15.91-6.22,1-10.89-4.84-11.24-12.28-.24-5.18-1.9-8.3-5.53-7.61s-4.63,5.9-3.63,11.76c1.38,8.13,5.54,11.76,6.23,20.23.49,6.05-2.94,13.66-12.45,15-9.3,1.35-15.91-4.32-16.6-10.55-.73-6.59,3.63-10.89,3.11-17.64s-4-10.17-5.88-17.29c-2.77-10.55,1.21-19,7.78-22.65,14.75-8.15,22.83,3.64,36,1.56,10.9-1.73,23.35-18.16,33-19.54,8.23-1.17,13.83,4.67,15,14S221.72,21.41,211.07,20.16Zm-42.2.52a4.15,4.15,0,1,0-4.15,4.15A4.15,4.15,0,0,0,168.88,20.68ZM218.34,5.29A1.73,1.73,0,1,0,216.61,7,1.73,1.73,0,0,0,218.34,5.29Z"/><path class="cls-4" d="M31.83,83.64c-14,2-21.17-13.33-17.67-20.33,3.67-7.33,12.12-4.17,19.5-4.17,9.67,0,16.37-7.57,20.42-2.25C58.33,62.47,49.07,81.18,31.83,83.64Zm.52-17.48a2.25,2.25,0,1,0-2.25,2.25A2.25,2.25,0,0,0,32.36,66.16Z"/><path class="cls-3" d="M48.83,1c0,7.17,4.59,13.81-1,16.33-8.5,3.83-28-14.33-28-36.17,0-12,8.67-19,17.83-19,12.33,0,18,8.17,18,17.5S48.83-7.22,48.83,1ZM43.42-4.4a2.08,2.08,0,0,0-2.07-2.08A2.08,2.08,0,0,0,39.27-4.4a2.08,2.08,0,0,0,2.08,2.08A2.08,2.08,0,0,0,43.42-4.4Z"/><path class="cls-4" d="M46.19,112c0,6.23-4.15,10.72-8.65,11.59s-8.32-1.28-13,1.21c-4.84,2.59-7.09,11.07-16.77,11.07-8,0-15.22-8-15.22-18.85,0-20.23,13.14-29.23,25.59-29.23C34.78,87.78,46.19,100.4,46.19,112ZM26.48,97.63a3.8,3.8,0,1,0-3.8,3.8A3.8,3.8,0,0,0,26.48,97.63Z"/><circle class="cls-2" cx="43.08" cy="88.3" r="2.42"/><path class="cls-4" d="M129.2,69.79c-3.19,4.68,1,10.72-1.38,15.22s-6.74,5-9.86,2.6c-3.63-2.83-3.41-6.64-8.3-8.82-5.53-2.46-18,2.25-19.71-7.26-.87-4.81,2.37-8.57,7.26-9.68,6.05-1.38,9.35-.18,15.39-3.11s11.24-9,22.14-12.11c10.41-3,16.07,1.56,16.6,5.88C152.37,61,134.21,62.45,129.2,69.79ZM127,62.35a2.25,2.25,0,1,0-2.25,2.25A2.25,2.25,0,0,0,127,62.35Z"/><path class="cls-3" d="M156.17,109c0,17.17-14.5,25.5-27,22.83-10.26-2.19-12.83-17.33-16.67-26.17-3.71-8.56-8.83-22.5-20.17-22.5S79.5,97.64,68.67,97.64c-11,0-24.5-15.67-24.5-39.67C44.17,43.3,54,26.52,65,27.3,76.67,28.14,69.5,47,80.33,47c9.5,0,7.86-16.26,9.17-23.33,1.67-9,6.83-14.17,18.5-13.17,14.44,1.24,22.33,13.5,18.87,23.34-4,11.45-23.87,17.32-21.54,30.49,1.35,7.59,13,12,26,16.17C145.86,85.13,156.17,91.8,156.17,109Zm-45-75.84a3.29,3.29,0,1,0,3.29-3.29A3.29,3.29,0,0,0,111.21,33.13ZM64.52,58a1.73,1.73,0,1,0-1.73,1.73A1.73,1.73,0,0,0,64.52,58ZM82,68.75a3.8,3.8,0,1,0-3.8,3.8A3.8,3.8,0,0,0,82,68.75Zm19.89-15.56a1.56,1.56,0,1,0-1.56,1.56A1.56,1.56,0,0,0,101.88,53.19Zm29.64,54.69a3.17,3.17,0,1,0-3.17,3.17A3.17,3.17,0,0,0,131.52,107.88Z"/><path class="cls-4" d="M123.53,24.47c-7.87,2.74-19.44-15.3-17.67-27,1.24-8.23,7.12-13.19,13.09-14.22,7.53-1.3,12.9,2.6,13.3,7.24.55,6.31-3.63,7.52-4.22,15C127.46,12.57,131.72,21.62,123.53,24.47ZM119.74-3a2.59,2.59,0,0,0-2.59-2.59A2.59,2.59,0,0,0,114.55-3a2.59,2.59,0,0,0,2.59,2.59A2.59,2.59,0,0,0,119.74-3Z"/><circle class="cls-3" cx="16.79" cy="2" r="2.59"/><path class="cls-3" d="M153.38,88.74c0-8.41-5.08-15.23-11.34-15.23s-11.34,6.82-11.34,15.23,5.08,12.44,11.34,12.44S153.38,97.15,153.38,88.74Z"/><path class="cls-4" d="M84.61-5.72c.74,8.1,12.67,7,17.9,14.21C113,23,101.29,54.86,80.88,54.86c-11.74,0-24.22-9.72-24.22-29.22,0-15.83,10.17-21.5,8.25-42.17-1-10.83-12.5-20.34-12.5-34.75C52.42-57.2,56-64.73,64-64.73c7.05,0,10.82,6,10.82,12.9s-5.38,15.74,1.37,19c5.24,2.57,13.21-4.77,19.5-6.75,5.19-1.64,12.39.22,14.75,8.5,2.53,8.88-3.25,14.75-11.59,16.69C92.51-12.86,84-12.16,84.61-5.72Zm-16-30.56a3.29,3.29,0,0,0-3.29-3.29,3.29,3.29,0,0,0-3.29,3.29A3.29,3.29,0,0,0,65.34-33,3.29,3.29,0,0,0,68.62-36.28Zm26,9.7a2.33,2.33,0,0,0,2.33-2.33,2.33,2.33,0,0,0-2.33-2.33,2.33,2.33,0,0,0-2.33,2.33A2.33,2.33,0,0,0,94.61-26.59Zm-20,59.67a3.29,3.29,0,1,0-3.29,3.29A3.29,3.29,0,0,0,74.62,33.09Z"/><path class="cls-2" d="M66.94,20.16c-11.76-1.38-19.37.35-22.65,3.11-3,2.54-5,5.41-2.25,11.93,2.94,7.09,1.53,14.73-5.54,15.91-6.22,1-10.89-4.84-11.24-12.28-.24-5.18-1.9-8.3-5.53-7.61S15.1,37.13,16.1,43c1.38,8.13,5.54,11.76,6.23,20.23.49,6.05-2.94,13.66-12.45,15C.57,79.62-6,73.94-6.73,67.72c-.73-6.59,3.63-10.89,3.11-17.64s-4-10.17-5.88-17.29c-2.77-10.55,1.21-19,7.78-22.65C13,2,21.12,13.77,34.26,11.68,45.15,10,57.61-6.47,67.29-7.86c8.23-1.17,13.83,4.67,15,14S77.59,21.41,66.94,20.16Zm-42.2.52a4.15,4.15,0,1,0-4.15,4.15A4.15,4.15,0,0,0,24.75,20.68ZM74.21,5.29A1.73,1.73,0,1,0,72.48,7,1.73,1.73,0,0,0,74.21,5.29Z"/><circle class="cls-2" cx="128.85" cy="42.47" r="1.38"/><circle class="cls-5" cx="133.52" cy="4.08" r="2.25"/><circle class="cls-6" cx="51.03" cy="27.25" r="1.21"/><circle class="cls-6" cx="47.23" cy="95.73" r="1.38"/><circle class="cls-3" cx="131.97" cy="73.77" r="1.21"/><circle class="cls-7" cx="92.48" cy="91.69" r="3.41"/><circle class="cls-3" cx="98.77" cy="131.55" r="2.1"/><circle class="cls-3" cx="60.49" cy="125.25" r="1.57"/><circle class="cls-7" cx="133.12" cy="11.21" r="2.62"/><circle class="cls-4" cx="123.15" cy="46.07" r="2.36"/><circle class="cls-5" cx="25.1" cy="52.63" r="2.62"/><circle class="cls-4" cx="21.43" cy="45.55" r="1.31"/><circle class="cls-3" cx="85.4" cy="97.46" r="1.57"/><path class="cls-4" d="M-14.93,69.79c-3.19,4.68,1,10.72-1.38,15.22s-6.74,5-9.86,2.6c-3.63-2.83-3.41-6.64-8.3-8.82-5.53-2.46-18,2.25-19.71-7.26-.87-4.81,2.38-8.57,7.26-9.68,6.05-1.38,9.35-.18,15.39-3.11s11.24-9,22.14-12.11C1,43.64,6.68,48.17,7.21,52.5,8.24,61-9.92,62.45-14.93,69.79Zm-2.25-7.44a2.25,2.25,0,0,0-2.25-2.25,2.25,2.25,0,0,0-2.25,2.25,2.25,2.25,0,0,0,2.25,2.25A2.25,2.25,0,0,0-17.18,62.35Z"/><path class="cls-3" d="M12,109c0,17.17-14.5,25.5-27,22.83-10.26-2.19-12.83-17.33-16.67-26.17-3.71-8.56-8.83-22.5-20.17-22.5s-12.83,14.5-23.67,14.5C-86.46,97.64-100,82-100,58c0-14.67,9.8-31.46,20.83-30.67C-67.46,28.14-74.63,47-63.8,47c9.5,0,7.86-16.26,9.17-23.33,1.67-9,6.83-14.17,18.5-13.17C-21.69,11.71-13.8,24-17.26,33.82c-4,11.45-23.87,17.32-21.54,30.49,1.35,7.59,13,12,26,16.17C1.73,85.13,12,91.8,12,109Zm-45-75.84a3.29,3.29,0,0,0,3.29,3.29,3.29,3.29,0,0,0,3.29-3.29,3.29,3.29,0,0,0-3.29-3.29A3.29,3.29,0,0,0-32.91,33.13ZM-79.61,58a1.73,1.73,0,0,0-1.73-1.73A1.73,1.73,0,0,0-83.07,58a1.73,1.73,0,0,0,1.73,1.73A1.73,1.73,0,0,0-79.61,58Zm17.47,10.72a3.8,3.8,0,0,0-3.8-3.8,3.81,3.81,0,0,0-3.8,3.8,3.81,3.81,0,0,0,3.8,3.8A3.8,3.8,0,0,0-62.14,68.75Zm19.89-15.56a1.56,1.56,0,0,0-1.56-1.56,1.56,1.56,0,0,0-1.56,1.56,1.56,1.56,0,0,0,1.56,1.56A1.56,1.56,0,0,0-42.25,53.19Zm29.64,54.69a3.17,3.17,0,0,0-3.17-3.17A3.17,3.17,0,0,0-19,107.88a3.17,3.17,0,0,0,3.17,3.17A3.17,3.17,0,0,0-12.61,107.88Z"/><path class="cls-3" d="M9.26,88.74c0-8.41-5.08-15.23-11.34-15.23s-11.34,6.82-11.34,15.23,5.08,12.44,11.34,12.44S9.26,97.15,9.26,88.74Z"/></pattern><clipPath id="clip-path" transform="translate(0 -0.88)"><rect class="cls-1" x="53" width="27" height="27"/></clipPath><clipPath id="clip-path-2" transform="translate(0 -0.88)"><rect class="cls-1" x="976.68" y="615.63" width="29" height="25"/></clipPath><clipPath id="clip-path-3" transform="translate(0 -0.88)"><rect class="cls-1" x="528" y="278" width="18" height="26"/></clipPath><clipPath id="clip-path-4" transform="translate(0 -0.88)"><rect class="cls-1" x="26.53" y="220.6" width="56" height="37"/></clipPath><clipPath id="clip-path-5" transform="translate(0 -0.88)"><rect class="cls-1" x="186" y="623" width="17" height="17"/></clipPath><clipPath id="clip-path-6" transform="translate(0 -0.88)"><rect class="cls-1" x="287" y="614" width="9" height="26"/></clipPath><clipPath id="clip-path-7" transform="translate(0 -0.88)"><rect class="cls-1" x="378" y="614" width="14" height="26"/></clipPath><clipPath id="clip-path-8" transform="translate(0 -0.88)"><rect class="cls-1" x="450" y="614" width="18" height="26"/></clipPath><clipPath id="clip-path-9" transform="translate(0 -0.88)"><rect class="cls-1" x="592.69" y="622.84" width="15" height="17"/></clipPath><clipPath id="clip-path-10" transform="translate(0 -0.88)"><rect class="cls-1" x="698.66" y="615.04" width="11" height="25.8"/></clipPath><clipPath id="clip-path-11" transform="translate(0 -0.88)"><rect class="cls-1" x="769" y="615" width="16" height="32"/></clipPath><clipPath id="clip-path-12" transform="translate(0 -0.88)"><rect class="cls-1" x="868" y="615" width="17" height="26"/></clipPath><clipPath id="clip-path-13" transform="translate(0 -0.88)"><rect class="cls-1" x="257.1" y="133.2" width="66" height="39"/></clipPath><clipPath id="clip-path-14" transform="translate(0 -0.88)"><rect class="cls-1" x="497.22" y="445.06" width="58.78" height="51.29"/></clipPath><clipPath id="clip-path-15" transform="translate(0 -0.88)"><rect class="cls-1" x="455.45" y="568.6" width="6" height="37"/></clipPath><clipPath id="clip-path-16" transform="translate(0 -0.88)"><rect class="cls-1" x="686" y="569" width="9" height="37"/></clipPath><clipPath id="clip-path-17" transform="translate(0 -0.88)"><rect class="cls-1" x="590" y="569" width="10" height="37"/></clipPath><clipPath id="clip-path-18" transform="translate(0 -0.88)"><rect class="cls-1" x="192.45" y="567.6" width="6" height="37"/></clipPath><clipPath id="clip-path-19" transform="translate(0 -0.88)"><rect class="cls-1" x="383.61" y="568.6" width="6" height="37"/></clipPath><clipPath id="clip-path-20" transform="translate(0 -0.88)"><rect class="cls-1" x="786" y="569" width="10" height="37" transform="translate(-9.21 12.61) rotate(-0.91)"/></clipPath><clipPath id="clip-path-21" transform="translate(0 -0.88)"><rect class="cls-1" x="871" y="568" width="9" height="37"/></clipPath><clipPath id="clip-path-22" transform="translate(0 -0.88)"><rect class="cls-1" x="232.59" y="281.58" width="19" height="34"/></clipPath><clipPath id="clip-path-23" transform="translate(0 -0.88)"><rect class="cls-1" x="724" y="62" width="18" height="26"/></clipPath><clipPath id="clip-path-24" transform="translate(0 -0.88)"><rect class="cls-1" x="276.8" y="676.24" width="26" height="27"/></clipPath><clipPath id="clip-path-25" transform="translate(0 -0.88)"><rect class="cls-1" x="513" y="676" width="21" height="26"/></clipPath><clipPath id="clip-path-26" transform="translate(0 -0.88)"><rect class="cls-1" x="729" y="676" width="17" height="25"/></clipPath><clipPath id="clip-path-27" transform="translate(0 -0.88)"><rect class="cls-1" x="904" y="676" width="32" height="25"/></clipPath></defs><title>Asset 1</title><g id="Layer_2" data-name="Layer 2"><g id="Layer_3" data-name="Layer 3"><path class="cls-8" d="M984.5,140.5" transform="translate(0 -0.88)"/><g class="cls-9"><path class="cls-10" d="M596,366l.5,221.5h-139v-264c43-23,56,38,87,48S596,366,596,366Z" transform="translate(0 -0.88)"/></g><path class="cls-11" d="M457.5,323.5c43-23,56,38,87,48S596,366,596,366" transform="translate(0 -0.88)"/></g><g id="Layer_2-2" data-name="Layer 2"><line class="cls-12" x1="110.02" y1="30.19" x2="110.98" y2="717.05"/><path class="cls-13" d="M110,19c-2.1,5.68-5.69,12.73-9.49,17.11L110,32.65l9.51,3.43C115.72,31.72,112.11,24.68,110,19Z" transform="translate(0 -0.88)"/><path class="cls-13" d="M111,730c-2.12-5.68-5.72-12.72-9.54-17.08l9.52,3.43,9.5-3.45C116.68,717.27,113.1,724.32,111,730Z" transform="translate(0 -0.88)"/><line class="cls-12" x1="966.93" y1="586.12" x2="12.07" y2="586.12"/><path class="cls-13" d="M979,587c-5.68-2.11-12.73-5.7-17.09-9.51l3.44,9.51-3.44,9.51C966.27,592.7,973.32,589.11,979,587Z" transform="translate(0 -0.88)"/><path class="cls-13" d="M0,587c5.68-2.11,12.73-5.7,17.09-9.51L13.65,587l3.44,9.51C12.73,592.7,5.68,589.11,0,587Z" transform="translate(0 -0.88)"/><line class="cls-14" x1="966.93" y1="586.12" x2="920" y2="586.12"/><path d="M979,587c-5.68-2.11-12.73-5.7-17.09-9.51l3.44,9.51-3.44,9.51C966.27,592.7,973.32,589.11,979,587Z" transform="translate(0 -0.88)"/></g><g id="Layer_1-2" data-name="Layer 1"><g class="cls-9"><line class="cls-15" x1="111" y1="238.62" x2="116" y2="238.62"/><line class="cls-16" x1="126.06" y1="238.62" x2="281.97" y2="238.62"/><line class="cls-15" x1="287" y1="238.62" x2="292" y2="238.62"/></g><g class="cls-17"><path d="M79.2,1.24a.36.36,0,0,0-.4-.36c-.11,0-.14,0-.54.43L75.75,4.08a6.74,6.74,0,0,0-6-3.2c-8,0-16.09,7.94-16.09,16.27A9.42,9.42,0,0,0,63.43,27a12,12,0,0,0,7.76-3.09,11.82,11.82,0,0,0,4-6.32c0-.36-.36-.36-.43-.36a.42.42,0,0,0-.47.36,11.7,11.7,0,0,1-3.63,5.67A10.37,10.37,0,0,1,64,25.88c-3.23,0-7-1.87-7-7.47,0-2,.75-7.86,4.35-12.07A12.19,12.19,0,0,1,70.07,2c3.66,0,5.78,2.77,5.78,6.93a14.26,14.26,0,0,1-.11,1.83c0,.36.4.36.54.36.47,0,.47-.07.65-.72L79.2,1.24" transform="translate(0 -0.88)"/></g><g class="cls-18"><path d="M989.34,618.18c.32-1.26.4-1.36,1.94-1.36h3.84c3.52,0,6.5,1.9,6.5,6.64,0,1.76-.72,7.65-3.77,11.6a10.74,10.74,0,0,1-8.3,4.06H985.5a4,4,0,0,1-.79,0c-.36,0-.47-.07-.47-.36a3,3,0,0,1,.18-.83l4.92-19.72m-7.76,19.25c-.36,1.4-.43,1.69-3.27,1.69-.61,0-1,0-1,.68,0,.43.32.43,1,.43h11.89c7.47,0,14.55-7.58,14.55-15.44,0-5.06-3.05-9.09-8.44-9.09H984.25c-.68,0-1.08,0-1.08.68,0,.43.32.43,1,.43.47,0,1.11,0,1.54.07s.79.18.79.57a3.15,3.15,0,0,1-.14.68Z" transform="translate(0 -0.88)"/></g><g class="cls-19"><path d="M536.41,278.67s0-.4-.47-.4c-.83,0-3.45.29-4.38.36-.29,0-.68.07-.68.72,0,.43.32.43.86.43,1.72,0,1.8.25,1.8.61l-.11.72-5.21,20.69a2.2,2.2,0,0,0-.14.79,1,1,0,0,0,1,1,1.5,1.5,0,0,0,1.33-.93l.68-2.73.79-3.23c.21-.79.43-1.58.61-2.41.07-.22.36-1.4.4-1.62a10.62,10.62,0,0,1,2.44-3.3,5.71,5.71,0,0,1,3.45-1.26c1.54,0,1.94,1.22,1.94,2.51,0,1.94-1.37,5.85-2.23,8a5.41,5.41,0,0,0-.47,2A2.87,2.87,0,0,0,541,303.6c3.38,0,4.7-5.24,4.7-5.53s-.32-.36-.43-.36c-.36,0-.36.11-.54.65-.54,1.9-1.69,4.45-3.66,4.45-.61,0-.86-.36-.86-1.18a6.84,6.84,0,0,1,.65-2.55c.57-1.55,2.19-5.82,2.19-7.9,0-2.33-1.44-3.84-4.13-3.84a6.66,6.66,0,0,0-5.32,2.76l2.8-11.42" transform="translate(0 -0.88)"/></g><g class="cls-20"><path d="M38.31,233.83H41.4c.72,0,1.08,0,1.08-.72,0-.4-.36-.4-1-.4h-3l.75-4.09a34.21,34.21,0,0,1,.86-3.73,2,2,0,0,1,1.69-1.22,2.64,2.64,0,0,1,1.76.65,2,2,0,0,0-1.94,1.94A1.24,1.24,0,0,0,43,227.51a2.06,2.06,0,0,0,2-2.16c0-1.65-1.65-2.48-3.12-2.48-1.22,0-3.48.65-4.56,4.2-.22.75-.32,1.11-1.19,5.64H33.61c-.68,0-1.08,0-1.08.68,0,.43.32.43,1,.43h2.37L33.21,248c-.65,3.48-1.26,6.75-3.13,6.75a2.57,2.57,0,0,1-1.72-.65,2,2,0,0,0,2-1.94A1.24,1.24,0,0,0,29,250.93a2.06,2.06,0,0,0-2,2.15c0,1.62,1.58,2.48,3.05,2.48,2,0,3.41-2.12,4.06-3.48a32.07,32.07,0,0,0,2-6.86l2.16-11.38" transform="translate(0 -0.88)"/><path d="M58.52,256.82c0-.11,0-.18-.61-.79-4.49-4.53-5.64-11.31-5.64-16.81,0-6.25,1.36-12.5,5.78-17,.47-.43.47-.5.47-.61a.32.32,0,0,0-.36-.36c-.36,0-3.59,2.44-5.71,7a27.66,27.66,0,0,0,.11,22.16c2.15,4.42,5.24,6.75,5.6,6.75a.32.32,0,0,0,.36-.36" transform="translate(0 -0.88)"/><path d="M69.8,223.67s0-.4-.47-.4c-.83,0-3.45.29-4.38.36-.29,0-.68.07-.68.75,0,.4.36.4.9.4,1.72,0,1.76.32,1.76.61l-.11.72-4.53,18a3.81,3.81,0,0,0-.18,1.22,3.22,3.22,0,0,0,3.27,3.3,3,3,0,0,0,2.69-2,17.27,17.27,0,0,0,1.08-3.52c0-.36-.32-.36-.43-.36-.36,0-.4.14-.5.65-.61,2.33-1.29,4.45-2.73,4.45-1.08,0-1.08-1.15-1.08-1.65a5,5,0,0,1,.22-1.72l5.17-20.76" transform="translate(0 -0.88)"/><path d="M82.31,239.22A26.18,26.18,0,0,0,79.94,228c-2.15-4.42-5.24-6.75-5.6-6.75a.34.34,0,0,0-.36.36c0,.11,0,.18.68.83,3.52,3.55,5.57,9.27,5.57,16.77,0,6.14-1.33,12.46-5.78,17-.47.43-.47.5-.47.61a.34.34,0,0,0,.36.36c.36,0,3.59-2.44,5.71-7a26.1,26.1,0,0,0,2.26-11" transform="translate(0 -0.88)"/></g><g class="cls-21"><path d="M196,635.13a2.34,2.34,0,0,1-.72,1.33c-1.58,2-3.05,2.55-4.06,2.55-1.8,0-2.3-2-2.3-3.37a26.35,26.35,0,0,1,2-7.87c1.11-2.12,2.73-3.45,4.17-3.45,2.33,0,2.84,2.95,2.84,3.16a3.08,3.08,0,0,1-.11.61l-1.8,7m2.33-9.3a3.59,3.59,0,0,0-3.3-2.3c-4.2,0-8.66,5.28-8.66,10.52,0,3.38,2,5.75,4.78,5.75.72,0,2.51-.14,4.67-2.69A3.27,3.27,0,0,0,199,639.8a3,3,0,0,0,2.66-2,18.57,18.57,0,0,0,1.08-3.56c0-.36-.32-.36-.43-.36-.36,0-.4.14-.5.65-.61,2.33-1.26,4.45-2.73,4.45-1,0-1.08-.93-1.08-1.65a9.16,9.16,0,0,1,.47-2.66c.4-1.51.47-1.87.79-3.23l1.29-5a5.09,5.09,0,0,0,.25-1.22.94.94,0,0,0-1-1A1.66,1.66,0,0,0,198.3,625.82Z" transform="translate(0 -0.88)"/></g><g class="cls-22"><path d="M295.37,614.67s0-.4-.47-.4c-.83,0-3.45.29-4.38.36-.29,0-.68.07-.68.75,0,.4.36.4.9.4,1.72,0,1.76.32,1.76.61l-.11.72-4.53,18a3.81,3.81,0,0,0-.18,1.22,3.22,3.22,0,0,0,3.27,3.3,3,3,0,0,0,2.69-2,17.27,17.27,0,0,0,1.08-3.52c0-.36-.32-.36-.43-.36-.36,0-.4.14-.5.65-.61,2.33-1.29,4.45-2.73,4.45-1.08,0-1.08-1.15-1.08-1.65a5,5,0,0,1,.22-1.72l5.17-20.76" transform="translate(0 -0.88)"/></g><g class="cls-23"><path d="M381.91,628.25c.22-.79.22-.86.54-1.26,1.76-2.33,3.38-2.87,4.31-2.87,1.29,0,2.26,1.08,2.26,3.38a25.51,25.51,0,0,1-1.83,7.61c-1.19,2.41-2.84,3.7-4.24,3.7-1.22,0-2.41-1-2.41-3.63a12.51,12.51,0,0,1,.57-3.63l.79-3.3m3.38-13.58s0-.4-.47-.4c-.83,0-3.45.29-4.38.36-.29,0-.68.07-.68.72,0,.43.32.43.86.43,1.73,0,1.8.25,1.8.61s-.32,1.47-.5,2.23L379,630.33a13,13,0,0,0-.58,3.63c0,3.41,1.9,5.64,4.56,5.64,4.24,0,8.66-5.35,8.66-10.52,0-3.27-1.9-5.75-4.78-5.75a6.16,6.16,0,0,0-4.2,2.15Z" transform="translate(0 -0.88)"/></g><g class="cls-24"><path d="M460.16,634.93a2.34,2.34,0,0,1-.72,1.33c-1.58,2-3.05,2.55-4.06,2.55-1.8,0-2.3-2-2.3-3.37a26.35,26.35,0,0,1,2-7.87c1.11-2.12,2.73-3.45,4.17-3.45,2.33,0,2.84,2.95,2.84,3.16a3.08,3.08,0,0,1-.11.61l-1.8,7m7.47-20.26s0-.4-.47-.4-4,.32-4.56.4c-.29,0-.5.22-.5.68s.32.43.86.43c1.73,0,1.8.25,1.8.61l-.11.72-2.16,8.51a3.59,3.59,0,0,0-3.3-2.3c-4.2,0-8.66,5.28-8.66,10.52,0,3.38,2,5.75,4.78,5.75.72,0,2.51-.14,4.67-2.69a3.27,3.27,0,0,0,3.27,2.69,3,3,0,0,0,2.66-2,18.57,18.57,0,0,0,1.08-3.56c0-.36-.32-.36-.43-.36-.36,0-.4.14-.5.65-.61,2.33-1.26,4.45-2.73,4.45-1,0-1.08-.93-1.08-1.65a5.81,5.81,0,0,1,.21-1.72Z" transform="translate(0 -0.88)"/></g><g class="cls-25"><path d="M596.72,630.15c1.4-5.46,5.1-6,6-6a2.37,2.37,0,0,1,2.66,2.26c0,3.74-5.75,3.74-7.22,3.74h-1.47m1.69.79a16.17,16.17,0,0,0,5.5-.82,4.09,4.09,0,0,0,2.69-3.7c0-1.58-1.37-3.05-3.84-3.05a9.78,9.78,0,0,0-9.41,9.77c0,3.66,2.12,6.5,5.64,6.5,5.14,0,8.15-3.81,8.15-4.24a.5.5,0,0,0-.43-.47c-.18,0-.25.07-.47.36a9.37,9.37,0,0,1-7.18,3.55c-2.8,0-3.12-3-3.12-4.17a15.69,15.69,0,0,1,.57-3.74Z" transform="translate(0 -0.88)"/></g><g class="cls-26"><path d="M705.73,630.7c.43-1,.43-1.11.79-2.08a4.8,4.8,0,0,0,.47-1.9,2.85,2.85,0,0,0-2.94-2.94c-3.38,0-4.74,5.21-4.74,5.53s.36.36.43.36c.36,0,.4-.07.57-.65,1-3.37,2.41-4.45,3.63-4.45.29,0,.9,0,.9,1.15a5.4,5.4,0,0,1-.4,1.87c-.29.93-1.9,5.1-2.48,6.64a10.13,10.13,0,0,0-.82,2.87,2.85,2.85,0,0,0,2.95,2.95c3.38,0,4.7-5.21,4.7-5.53s-.32-.36-.43-.36c-.36,0-.36.11-.54.65-.65,2.26-1.83,4.45-3.66,4.45-.61,0-.86-.36-.86-1.18s.22-1.4,1-3.59l1.4-3.77m2.73-13.5a1.25,1.25,0,0,0-1.33-1.29,2.05,2.05,0,0,0-1.94,1.9,1.28,1.28,0,0,0,1.37,1.29A2,2,0,0,0,708.46,617.2Z" transform="translate(0 -0.88)"/></g><g class="cls-27"><path d="M777,641.4c-.68,2.73-2.41,4.78-4.42,4.78a3,3,0,0,1-1.4-.32,2,2,0,0,0,1.62-1.9,1.25,1.25,0,0,0-1.37-1.26,2,2,0,0,0-1.94,2c0,1.44,1.44,2.23,3.16,2.23a7.32,7.32,0,0,0,6.75-5.46l3.3-13.14a5.49,5.49,0,0,0,.18-1.33,3.19,3.19,0,0,0-3.3-3.3c-3.66,0-5.71,5.21-5.71,5.53s.36.36.43.36c.32,0,.36,0,.65-.72.9-2.19,2.55-4.38,4.53-4.38.5,0,1.15.14,1.15,1.65a6.63,6.63,0,0,1-.25,1.83L777,641.4m7.22-24.24a1.28,1.28,0,0,0-1.36-1.29,2,2,0,0,0-1.9,1.9,1.25,1.25,0,0,0,1.33,1.29A2.05,2.05,0,0,0,784.26,617.15Z" transform="translate(0 -0.88)"/></g><g class="cls-28"><path d="M876.81,615.67s0-.4-.47-.4c-.83,0-3.45.29-4.38.36-.29,0-.68.07-.68.72,0,.43.32.43.86.43,1.72,0,1.8.25,1.8.61l-.11.72-5.21,20.69a2.2,2.2,0,0,0-.14.79,1,1,0,0,0,1,1,1.47,1.47,0,0,0,1.22-.75c.18-.32,1.8-7,2-7.87,1.22.11,4.17.68,4.17,3.05a2.1,2.1,0,0,1-.11.75,7.92,7.92,0,0,0-.14,1.26,3.32,3.32,0,0,0,3.3,3.56,3.28,3.28,0,0,0,2.84-1.9,13,13,0,0,0,1.29-3.63c0-.36-.32-.36-.43-.36-.36,0-.4.14-.5.65-.72,2.62-1.54,4.45-3.12,4.45-.68,0-1.15-.4-1.15-1.69a9.35,9.35,0,0,1,.29-2,3.71,3.71,0,0,0,.14-1.11c0-2.33-2.26-3.38-5.32-3.77a15.93,15.93,0,0,0,3.09-2.66c1.72-1.9,3.37-3.45,5.13-3.45.22,0,.25,0,.32,0a1.2,1.2,0,0,1,.75.29c.07,0,.07.07.14.14a2,2,0,0,0-2,1.94,1.25,1.25,0,0,0,1.36,1.26,2.07,2.07,0,0,0,2-2.19,2.29,2.29,0,0,0-2.44-2.26c-1,0-2.66.29-5.24,3.16a12.52,12.52,0,0,1-4,3.34l3.74-15.16" transform="translate(0 -0.88)"/></g><g class="cls-29"><path d="M268.48,148h3.09c.72,0,1.08,0,1.08-.72,0-.4-.36-.4-1-.4h-3l.75-4.09a34.21,34.21,0,0,1,.86-3.73,2,2,0,0,1,1.69-1.22,2.64,2.64,0,0,1,1.76.65,2,2,0,0,0-1.94,1.94,1.24,1.24,0,0,0,1.33,1.26,2.06,2.06,0,0,0,2-2.16c0-1.65-1.65-2.48-3.12-2.48-1.22,0-3.48.65-4.56,4.2-.22.75-.32,1.11-1.19,5.64h-2.48c-.68,0-1.08,0-1.08.68,0,.43.32.43,1,.43h2.37l-2.69,14.19c-.65,3.48-1.26,6.75-3.13,6.75a2.57,2.57,0,0,1-1.72-.65,2,2,0,0,0,2-1.94,1.24,1.24,0,0,0-1.33-1.26,2.06,2.06,0,0,0-2,2.15c0,1.62,1.58,2.48,3.05,2.48,2,0,3.41-2.12,4.06-3.48a32.07,32.07,0,0,0,2-6.86L268.48,148" transform="translate(0 -0.88)"/><path d="M284,135.77a1.75,1.75,0,0,0,.22-.8,1.44,1.44,0,0,0-2.86-.2L278,145.62a3.56,3.56,0,0,0-.12.4c0,.3.78.55,1,.55s.2,0,.38-.42L284,135.77" transform="translate(0 -0.88)"/><path d="M298.69,171c0-.11,0-.18-.61-.79-4.49-4.53-5.64-11.31-5.64-16.81,0-6.25,1.36-12.5,5.78-17,.47-.43.47-.5.47-.61a.32.32,0,0,0-.36-.36c-.36,0-3.59,2.44-5.71,7a27.66,27.66,0,0,0,.11,22.16c2.15,4.42,5.24,6.75,5.6,6.75a.32.32,0,0,0,.36-.36" transform="translate(0 -0.88)"/><path d="M310,137.87s0-.4-.47-.4c-.83,0-3.45.29-4.38.36-.29,0-.68.07-.68.75,0,.4.36.4.9.4,1.72,0,1.76.32,1.76.61l-.11.72-4.52,18a3.81,3.81,0,0,0-.18,1.22,3.22,3.22,0,0,0,3.27,3.3,3,3,0,0,0,2.69-2,17.27,17.27,0,0,0,1.08-3.52c0-.36-.32-.36-.43-.36-.36,0-.4.14-.5.65-.61,2.33-1.29,4.45-2.73,4.45-1.08,0-1.08-1.15-1.08-1.65a5,5,0,0,1,.22-1.72L310,137.87" transform="translate(0 -0.88)"/><path d="M322.48,153.43a26.18,26.18,0,0,0-2.37-11.21c-2.15-4.42-5.24-6.75-5.6-6.75a.34.34,0,0,0-.36.36c0,.11,0,.18.68.83,3.52,3.55,5.57,9.27,5.57,16.77,0,6.14-1.33,12.46-5.78,17-.47.43-.47.5-.47.61a.34.34,0,0,0,.36.36c.36,0,3.59-2.44,5.71-7a26.1,26.1,0,0,0,2.26-11" transform="translate(0 -0.88)"/></g><g class="cls-30"><path d="M498.33,490.47a1,1,0,0,0,1-1,1,1,0,1,0-2,0,2.15,2.15,0,0,0,2.3,1.93c3.15,0,4.33-4.84,5.79-10.85q2.39-9.81,4.06-19.79c.77-4.41,1.53-8.55,2.24-11.22.25-1,1-3.68,1.76-3.68a2,2,0,0,1,1.24.48,1,1,0,0,0-1,1,1,1,0,1,0,2,0,2.14,2.14,0,0,0-2.26-1.93c-1.57,0-2.73,2.26-3.87,6.48-.06.23-2.88,10.62-5.15,24.15-.54,3.17-1.14,6.62-1.82,9.5-.37,1.51-1.32,5.4-3,5.4a2.1,2.1,0,0,1-1.26-.48" transform="translate(0 -0.88)"/><polyline points="511.84 495.11 511.84 494.4 510.32 494.4 510.32 481.37 511.84 481.37 511.84 480.66 509.61 480.66 509.61 495.11 511.84 495.11"/><path d="M517.54,490.57a2,2,0,0,1-.74,1,2.28,2.28,0,0,1-1.33.58c-.53,0-1.05-.38-1.05-1.4a8.35,8.35,0,0,1,.75-2.93c.66-1.16,1.4-1.37,1.81-1.37,1,0,1.29,1.1,1.29,1.26a.79.79,0,0,1,0,.2l-.68,2.7m3.08-7.79a1.8,1.8,0,0,0,.06-.23.21.21,0,0,0-.23-.2c-.29,0-1.49.12-1.85.14-.12,0-.32,0-.32.33s.2.2.38.2c.69,0,.69.1.69.22a1.44,1.44,0,0,1-.06.32l-.82,3.29A1.72,1.72,0,0,0,517,486c-1.85,0-3.73,2-3.73,4.12a2.23,2.23,0,0,0,2.18,2.4,3,3,0,0,0,2.05-1,1.51,1.51,0,0,0,1.49,1,1.31,1.31,0,0,0,1.14-.77,5.41,5.41,0,0,0,.51-1.44c0-.19-.19-.19-.23-.19-.2,0-.22.06-.32.45-.17.69-.45,1.55-1.05,1.55-.38,0-.48-.32-.48-.71a2.17,2.17,0,0,1,.07-.59Z" transform="translate(0 -0.88)"/><path d="M524,492.14a3.34,3.34,0,0,1-1.13,2.64c-.06.06-.1.1-.1.17a.23.23,0,0,0,.2.2,3.44,3.44,0,0,0,1.43-2.87c0-.9-.35-1.57-1-1.57a.83.83,0,0,0,0,1.66,1,1,0,0,0,.59-.23" transform="translate(0 -0.88)"/><path d="M528.3,488.68a2.76,2.76,0,0,1,2.6-2.27c.64,0,1.17.32,1.17.87,0,1.4-2.44,1.4-3.06,1.4h-.71m.79.4a8.11,8.11,0,0,0,2.33-.3,1.6,1.6,0,0,0,1.27-1.5c0-.8-.79-1.27-1.79-1.27a4,4,0,0,0-4.07,3.8,2.53,2.53,0,0,0,2.6,2.71c2.44,0,3.58-1.43,3.58-1.63a.31.31,0,0,0-.25-.25c-.09,0-.12,0-.23.14a4.09,4.09,0,0,1-3.08,1.33c-.87,0-1.44-.58-1.44-1.75a5.31,5.31,0,0,1,.17-1.29Z" transform="translate(0 -0.88)"/><path d="M535,481.54c-.1,0-.27,0-.27.17s0,.12.13.22c1.24,1.14,2.63,3.09,2.63,6.82,0,3-.94,5.3-2.5,6.72-.25.24-.26.26-.26.33a.17.17,0,0,0,.19.17,6.41,6.41,0,0,0,2.5-2.76,9.63,9.63,0,0,0,1.05-4.45,8.66,8.66,0,0,0-3.47-7.22" transform="translate(0 -0.88)"/><path d="M550.59,459.39s0-.23-.27-.23c-.48,0-2,.17-2.52.21-.17,0-.39,0-.39.41s.19.25.5.25c1,0,1,.14,1,.35l-.06.41-3,11.92a1.27,1.27,0,0,0-.08.45.57.57,0,0,0,.6.58.86.86,0,0,0,.77-.54l.39-1.57.46-1.86c.12-.46.25-.91.35-1.39,0-.12.21-.81.23-.93a6.12,6.12,0,0,1,1.41-1.9,3.29,3.29,0,0,1,2-.72c.89,0,1.12.7,1.12,1.45a17.6,17.6,0,0,1-1.28,4.64,3.12,3.12,0,0,0-.27,1.14,1.65,1.65,0,0,0,1.7,1.7c1.95,0,2.71-3,2.71-3.19s-.19-.21-.25-.21-.21.06-.31.37c-.31,1.1-1,2.57-2.11,2.57-.35,0-.5-.21-.5-.68a3.94,3.94,0,0,1,.37-1.47,18.57,18.57,0,0,0,1.26-4.55,2.1,2.1,0,0,0-2.38-2.21A3.84,3.84,0,0,0,549,466l1.61-6.58" transform="translate(0 -0.88)"/></g><g class="cls-31"><polyline points="460.81 604.3 460.81 602.87 457.32 602.87 457.32 569.82 460.81 569.82 460.81 568.39 455.89 568.39 455.89 604.3 460.81 604.3"/></g><g class="cls-32"><path d="M694.69,605.22c0-.11,0-.18-.61-.79-4.49-4.53-5.64-11.31-5.64-16.81,0-6.25,1.36-12.5,5.78-17,.47-.43.47-.5.47-.61a.32.32,0,0,0-.36-.36c-.36,0-3.59,2.44-5.71,7a27.66,27.66,0,0,0,.11,22.16c2.15,4.42,5.24,6.75,5.6,6.75a.32.32,0,0,0,.36-.36" transform="translate(0 -0.88)"/></g><g class="cls-33"><path d="M599.18,587.62a26.18,26.18,0,0,0-2.37-11.21c-2.15-4.42-5.24-6.75-5.6-6.75a.34.34,0,0,0-.36.36c0,.11,0,.18.68.83,3.52,3.55,5.57,9.27,5.57,16.77,0,6.14-1.33,12.46-5.78,17-.47.43-.47.5-.47.61a.34.34,0,0,0,.36.36c.36,0,3.59-2.44,5.71-7a26.1,26.1,0,0,0,2.26-11" transform="translate(0 -0.88)"/></g><circle class="cls-34" cx="291" cy="238.12" r="5.5"/><circle class="cls-35" cx="595.5" cy="365.62" r="5"/><g class="cls-36"><polyline points="197.81 603.3 197.81 601.87 194.32 601.87 194.32 568.82 197.81 568.82 197.81 567.39 192.89 567.39 192.89 603.3 197.81 603.3"/></g><g class="cls-37"><polyline points="389.12 568.39 384.2 568.39 384.2 569.82 387.69 569.82 387.69 602.87 384.2 602.87 384.2 604.3 389.12 604.3 389.12 568.39"/></g><g class="cls-38"><path d="M795.18,587.56a26.18,26.18,0,0,0-2.55-11.17c-2.22-4.38-5.35-6.67-5.71-6.66a.34.34,0,0,0-.35.36c0,.11,0,.18.7.82,3.57,3.5,5.71,9.18,5.83,16.68.1,6.14-1.13,12.48-5.51,17.08-.46.44-.46.51-.46.62a.34.34,0,0,0,.37.35c.36,0,3.55-2.5,5.6-7.09a26.1,26.1,0,0,0,2.09-11" transform="translate(0 -0.88)"/></g><g class="cls-39"><path d="M879.69,604.22c0-.11,0-.18-.61-.79-4.49-4.53-5.64-11.31-5.64-16.81,0-6.25,1.36-12.5,5.78-17,.47-.43.47-.5.47-.61a.32.32,0,0,0-.36-.36c-.36,0-3.59,2.44-5.71,7a27.66,27.66,0,0,0,.11,22.16c2.15,4.42,5.24,6.75,5.6,6.75a.32.32,0,0,0,.36-.36" transform="translate(0 -0.88)"/></g><line class="cls-40" x1="194.5" y1="585.31" x2="387.5" y2="584.92"/><line class="cls-40" x1="873.5" y1="585.61" x2="969.5" y2="586.61"/><line class="cls-40" x1="688.5" y1="586.62" x2="793.5" y2="586.62"/><g class="cls-41"><path d="M244.47,293.41h3.09c.72,0,1.08,0,1.08-.72,0-.4-.36-.4-1-.4h-3l.75-4.09a34.21,34.21,0,0,1,.86-3.73,2,2,0,0,1,1.69-1.22,2.64,2.64,0,0,1,1.76.65,2,2,0,0,0-1.94,1.94,1.24,1.24,0,0,0,1.33,1.26,2.06,2.06,0,0,0,2-2.16c0-1.65-1.65-2.48-3.12-2.48-1.22,0-3.48.65-4.56,4.2-.22.75-.32,1.11-1.19,5.64h-2.48c-.68,0-1.08,0-1.08.68,0,.43.32.43,1,.43h2.37l-2.69,14.19c-.65,3.48-1.26,6.75-3.12,6.75a2.57,2.57,0,0,1-1.72-.65,2,2,0,0,0,2-1.94,1.24,1.24,0,0,0-1.33-1.26,2.06,2.06,0,0,0-2,2.15c0,1.62,1.58,2.48,3.05,2.48,2,0,3.41-2.12,4.06-3.48a32.07,32.07,0,0,0,2-6.86l2.16-11.38" transform="translate(0 -0.88)"/></g><path class="cls-42" d="M386.5,237.5c-13.35,12.28-35.24,28.55-59,25-33.22-5-42.75-44.63-68-46-14.47-.78-36.75,10.87-67,76" transform="translate(0 -0.88)"/><path class="cls-11" d="M693,157a117.92,117.92,0,0,1,42.55-32,133.45,133.45,0,0,1,50-11.49" transform="translate(0 -0.88)"/><g class="cls-43"><path d="M732.41,62.67s0-.4-.47-.4c-.83,0-3.45.29-4.38.36-.29,0-.68.07-.68.72,0,.43.32.43.86.43,1.72,0,1.8.25,1.8.61l-.11.72L724.22,85.8a2.2,2.2,0,0,0-.14.79,1,1,0,0,0,1,1,1.5,1.5,0,0,0,1.33-.93l.68-2.73.79-3.23c.21-.79.43-1.58.61-2.41.07-.22.36-1.4.4-1.62a10.62,10.62,0,0,1,2.44-3.3,5.71,5.71,0,0,1,3.45-1.26c1.54,0,1.94,1.22,1.94,2.51,0,1.94-1.37,5.85-2.23,8a5.41,5.41,0,0,0-.47,2A2.87,2.87,0,0,0,737,87.6c3.38,0,4.7-5.24,4.7-5.53s-.32-.36-.43-.36c-.36,0-.36.11-.54.65-.54,1.9-1.69,4.45-3.66,4.45-.61,0-.86-.36-.86-1.18a6.84,6.84,0,0,1,.65-2.55c.57-1.55,2.19-5.82,2.19-7.9,0-2.33-1.44-3.84-4.13-3.84a6.66,6.66,0,0,0-5.32,2.76l2.8-11.42" transform="translate(0 -0.88)"/></g><circle class="cls-35" cx="691" cy="161.12" r="5.5"/><circle class="cls-35" cx="791.5" cy="112.62" r="5.5"/><line class="cls-44" x1="291.5" y1="575.12" x2="291.5" y2="596.12"/><g class="cls-45"><g class="cls-46"><path d="M287,693l7.07-11.85L295.27,693Zm-4.31,5.28c-1.44,2.41-2.84,2.91-4.42,3-.43,0-.75,0-.75.72a.42.42,0,0,0,.47.4c1,0,2.08-.11,3.09-.11,1.19,0,2.44.11,3.59.11.21,0,.68,0,.68-.68,0-.4-.32-.43-.57-.43-.83-.07-1.69-.36-1.69-1.26a2.78,2.78,0,0,1,.5-1.33l2.73-4.6h9c.07.75.58,5.64.58,6,0,1.08-1.87,1.18-2.59,1.18-.5,0-.86,0-.86.72,0,.4.43.4.5.4,1.47,0,3-.11,4.49-.11.9,0,3.16.11,4.06.11.21,0,.65,0,.65-.72,0-.4-.36-.4-.82-.4-2.23,0-2.23-.25-2.33-1.29l-2.19-22.45c-.07-.72-.07-.86-.68-.86s-.72.25-.93.61Z" transform="translate(0 -0.88)"/></g></g><g class="cls-45"><g class="cls-47"><path d="M530.13,679.29c.29-1.18.36-1.51,2.33-1.51.58,0,1,0,1-.68,0-.32-.22-.43-.5-.43-.9,0-3.09.11-4,.11-1.18,0-4.09-.11-5.28-.11-.32,0-.75,0-.75.72,0,.4.29.4,1.22.4s1.19,0,2.08.07,1.11.22,1.11.72a3.43,3.43,0,0,1-.14.75l-4.13,16.48c-.86,3.48-3.3,5.39-5.17,5.39a3.43,3.43,0,0,1-3.41-2.23,1.9,1.9,0,0,0,.43,0,2.37,2.37,0,0,0,2.33-2.3,1.49,1.49,0,0,0-1.58-1.51c-.65,0-2.41.43-2.41,2.87,0,2.23,1.9,3.92,4.74,3.92a8.43,8.43,0,0,0,7.94-5.93l4.2-16.77" transform="translate(0 -0.88)"/></g></g><g class="cls-45"><g class="cls-48"><path d="M741.53,678.84c.32-1.29.43-1.65,3.27-1.65.86,0,1.15,0,1.15-.68,0-.43-.4-.43-.54-.43-1,0-3.7.11-4.74.11s-3.7-.11-4.78-.11c-.25,0-.72,0-.72.72,0,.4.32.4,1,.4,1.51,0,2.48,0,2.48.68a2,2,0,0,1-.07.58l-4.85,19.36c-.32,1.33-.43,1.69-3.27,1.69-.83,0-1.15,0-1.15.72,0,.4.43.4.54.4,1,0,3.66-.11,4.7-.11s3.74.11,4.81.11c.29,0,.72,0,.72-.68,0-.43-.29-.43-1.08-.43a11.64,11.64,0,0,1-1.54-.07c-.75-.07-.9-.21-.9-.61a3.06,3.06,0,0,1,.14-.83l4.81-19.14" transform="translate(0 -0.88)"/></g></g><g class="cls-45"><g class="cls-49"><path d="M921.38,686.09a2.82,2.82,0,0,1-.18-.5,11.13,11.13,0,0,1,1-.82l6.28-4.85c3.38-2.48,4.78-2.62,5.85-2.73.29,0,.65-.07.65-.72a.39.39,0,0,0-.4-.4c-.79,0-1.69.11-2.55.11-1.29,0-2.69-.11-4-.11-.25,0-.68,0-.68.72,0,.25.18.36.43.4.79.07,1.11.25,1.11.75s-1.08,1.47-1.29,1.65l-14,10.77,2.87-11.53c.32-1.29.4-1.65,3-1.65.9,0,1.22,0,1.22-.72,0-.32-.29-.4-.5-.4-1,0-3.59.11-4.6.11s-3.59-.11-4.63-.11c-.25,0-.72,0-.72.68,0,.43.32.43,1,.43.47,0,1.11,0,1.54.07s.79.18.79.57a3.15,3.15,0,0,1-.14.68l-4.81,19.29c-.36,1.4-.43,1.69-3.27,1.69-.61,0-1,0-1,.68,0,.43.43.43.54.43,1,0,3.56-.11,4.56-.11.75,0,1.55,0,2.3,0s1.58.07,2.33.07c.25,0,.72,0,.72-.72,0-.4-.32-.4-1-.4-1.33,0-2.34,0-2.34-.65,0-.25.22-1,.32-1.58.5-1.87,1-3.77,1.44-5.64l5.35-4.17,4.17,9.66c.43,1,.43,1,.43,1.26,0,1.08-1.55,1.11-1.87,1.11s-.79,0-.79.72c0,.4.43.4.5.4,1.44,0,2.94-.11,4.38-.11.79,0,2.73.11,3.52.11.18,0,.65,0,.65-.72,0-.4-.4-.4-.72-.4-1.47,0-1.94-.36-2.48-1.62l-5.1-11.78" transform="translate(0 -0.88)"/></g></g><line class="cls-40" x1="457" y1="585.62" x2="597.5" y2="586.62"/><line class="cls-50" x1="192" y1="139.12" x2="387" y2="334.12"/><g class="cls-9"><line class="cls-15" x1="291.5" y1="584.62" x2="291.5" y2="579.62"/><line class="cls-51" x1="291.5" y1="569.59" x2="291.5" y2="253.63"/><line class="cls-15" x1="291.5" y1="248.62" x2="291.5" y2="243.62"/></g><line class="cls-44" x1="121" y1="238.62" x2="100" y2="238.62"/></g></g></svg>