<?xml version="1.0" encoding="utf-8"?>
<!-- Generator: Adobe Illustrator 21.0.0, SVG Export Plug-In . SVG Version: 6.00 Build 0)  -->
<svg version="1.1" id="svgdiv" xmlns="http://www.w3.org/2000/svg" xmlns:xlink="http://www.w3.org/1999/xlink" x="0px" y="0px"
	 viewBox="0 0 2383.9 3370.4" style="enable-background:new 0 0 2383.9 3370.4;" xml:space="preserve">
<style type="text/css">
	.st0{font-family:'Palatino-Italic';}
	.st1{font-size:12px;}
</style>
<defs  xmlns="http://www.w3.org/1999/xhtml">
	<style  type="text/css">
		<![CDATA[
h1 { font-family: Raleway, sans-serif; }
hr { border: 0px; width: 50%; max-width: 10%; margin-left: 45%; height: 1px; background: linear-gradient(to right, rgb(204, 204, 204), rgb(51, 51, 51), rgb(204, 204, 204)) rgb(51, 51, 51); }
p { }
div { text-align: center; }
#svgdiv { text-align: center; width: 800px; height: 700px; display: block; margin: auto; }
			]]>
	</style>
</defs>
<g>
	<text transform="matrix(1 0 0 1 455.1261 176.5746)" class="st0 st1">A</text>
	<text transform="matrix(1 0 0 1 406.7364 278.5909)" class="st0 st1">B</text>
	<text transform="matrix(1 0 0 1 504.9675 277.5299)" class="st0 st1">C</text>
	<text transform="matrix(1 0 0 1 418.022 381.3724)" class="st0 st1">D</text>
	<text transform="matrix(1 0 0 1 358.3218 379.9674)" class="st0 st1">E</text>
	<text transform="matrix(1 0 0 1 493.4848 379.851)" class="st0 st1">F</text>
	<text transform="matrix(1 0 0 1 553.1691 378.7079)" class="st0 st1">G</text>
	<g>
		<polygon points="420.6,255.1 450.7,192.8 447.7,191.3 417.6,253.7 		"/>
		<polygon points="453.7,194.2 452.8,184.6 444.6,189.9 		"/>
	</g>
	<g>
		<polygon points="503.6,252.6 473.6,191.3 470.6,192.7 500.6,254 		"/>
		<polygon points="476.5,189.8 468.4,184.5 467.6,194.2 		"/>
	</g>
	<g>
		<polygon points="423.4,355.4 416.2,296.3 412.9,296.7 420.1,355.8 		"/>
		<polygon points="419.5,295.9 413.5,288.2 409.6,297.1 		"/>
	</g>
	<g>
		<polygon points="372.2,356.5 401.6,294.9 398.6,293.4 369.2,355.1 		"/>
		<polygon points="404.6,296.3 403.7,286.6 395.6,292 		"/>
	</g>
	<g>
		<polygon points="501.4,354.1 508.4,295.6 505.1,295.2 498.1,353.7 		"/>
		<polygon points="511.8,296 507.8,287.1 501.8,294.8 		"/>
	</g>
	<g>
		<polygon points="552.3,353.7 522.8,292.2 519.8,293.7 549.3,355.1 		"/>
		<polygon points="525.8,290.8 517.7,285.5 516.8,295.1 		"/>
	</g>
</g>
<defs  xmlns="http://www.w3.org/1999/xhtml">
	<style  type="text/css">
		<![CDATA[
h1 { font-family: Raleway, sans-serif; }
hr { border: 0px; width: 50%; max-width: 10%; margin-left: 45%; height: 1px; background: linear-gradient(to right, rgb(204, 204, 204), rgb(51, 51, 51), rgb(204, 204, 204)) rgb(51, 51, 51); }
p { }
div { text-align: center; }
#svgdiv { text-align: center; width: 800px; height: 700px; display: block; margin: auto; }
			]]>
	</style>
</defs>
<g>
	<text transform="matrix(1 0 0 1 454.1261 176.5746)" class="st0 st1">A</text>
	<text transform="matrix(1 0 0 1 405.7364 278.5909)" class="st0 st1">B</text>
	<text transform="matrix(1 0 0 1 503.9675 277.5299)" class="st0 st1">C</text>
	<text transform="matrix(1 0 0 1 417.022 381.3724)" class="st0 st1">D</text>
	<text transform="matrix(1 0 0 1 357.3218 379.9674)" class="st0 st1">E</text>
	<text transform="matrix(1 0 0 1 492.4848 379.851)" class="st0 st1">F</text>
	<text transform="matrix(1 0 0 1 552.1691 378.7079)" class="st0 st1">G</text>
	<g>
		<polygon points="419.6,255.1 449.7,192.8 446.7,191.3 416.6,253.7 		"/>
		<polygon points="452.7,194.2 451.8,184.6 443.6,189.9 		"/>
	</g>
	<g>
		<polygon points="502.6,252.6 472.6,191.3 469.6,192.7 499.6,254 		"/>
		<polygon points="475.5,189.8 467.4,184.5 466.6,194.2 		"/>
	</g>
	<g>
		<polygon points="422.4,355.4 415.2,296.3 411.9,296.7 419.1,355.8 		"/>
		<polygon points="418.5,295.9 412.5,288.2 408.6,297.1 		"/>
	</g>
	<g>
		<polygon points="371.2,356.5 400.6,294.9 397.6,293.4 368.2,355.1 		"/>
		<polygon points="403.6,296.3 402.7,286.6 394.6,292 		"/>
	</g>
	<g>
		<polygon points="500.4,354.1 507.4,295.6 504.1,295.2 497.1,353.7 		"/>
		<polygon points="510.8,296 506.8,287.1 500.8,294.8 		"/>
	</g>
	<g>
		<polygon points="551.3,353.7 521.8,292.2 518.8,293.7 548.3,355.1 		"/>
		<polygon points="524.8,290.8 516.7,285.5 515.8,295.1 		"/>
	</g>
</g>
</svg>
